<svg id="visual" viewBox="0 0 960 540" width="960" height="540" xmlns="http://www.w3.org/2000/svg" xmlns:xlink="http://www.w3.org/1999/xlink" version="1.1"><g stroke-width="1" stroke-linejoin="bevel"><path d="M450 260L494 316L571 303Z" fill="#a2a8d6" stroke="#a2a8d6"></path><path d="M571 303L577 173L450 260Z" fill="#a5a9d5" stroke="#a5a9d5"></path><path d="M457 107L392 208L450 260Z" fill="#acacd1" stroke="#acacd1"></path><path d="M345 357L502 439L494 316Z" fill="#a9abd2" stroke="#a9abd2"></path><path d="M577 173L457 107L450 260Z" fill="#a9abd2" stroke="#a9abd2"></path><path d="M732 262L639 108L577 173Z" fill="#a2a8d6" stroke="#a2a8d6"></path><path d="M577 173L522 0L457 107Z" fill="#aeadcf" stroke="#aeadcf"></path><path d="M345 357L494 316L450 260Z" fill="#a1a8d7" stroke="#a1a8d7"></path><path d="M494 316L502 439L571 303Z" fill="#adacd0" stroke="#adacd0"></path><path d="M689 469L701 335L571 303Z" fill="#a9abd2" stroke="#a9abd2"></path><path d="M571 303L732 262L577 173Z" fill="#ababd1" stroke="#ababd1"></path><path d="M392 208L345 357L450 260Z" fill="#a2a8d6" stroke="#a2a8d6"></path><path d="M701 335L732 262L571 303Z" fill="#a8aad3" stroke="#a8aad3"></path><path d="M457 107L354 89L392 208Z" fill="#a9abd2" stroke="#a9abd2"></path><path d="M392 208L236 283L345 357Z" fill="#a7aad4" stroke="#a7aad4"></path><path d="M365 0L354 89L457 107Z" fill="#a5a9d5" stroke="#a5a9d5"></path><path d="M456 540L555 480L502 439Z" fill="#a1a8d7" stroke="#a1a8d7"></path><path d="M502 439L555 480L571 303Z" fill="#a2a8d6" stroke="#a2a8d6"></path><path d="M639 108L522 0L577 173Z" fill="#adacd0" stroke="#adacd0"></path><path d="M345 357L364 451L502 439Z" fill="#adacd0" stroke="#adacd0"></path><path d="M759 66L632 0L639 108Z" fill="#a8aad3" stroke="#a8aad3"></path><path d="M639 108L632 0L522 0Z" fill="#adacd0" stroke="#adacd0"></path><path d="M555 480L689 469L571 303Z" fill="#a1a8d7" stroke="#a1a8d7"></path><path d="M701 335L822 251L732 262Z" fill="#adacd0" stroke="#adacd0"></path><path d="M202 176L236 283L392 208Z" fill="#a8aad3" stroke="#a8aad3"></path><path d="M207 468L276 540L364 451Z" fill="#a1a8d7" stroke="#a1a8d7"></path><path d="M522 0L365 0L457 107Z" fill="#aeadcf" stroke="#aeadcf"></path><path d="M354 89L202 176L392 208Z" fill="#a7aad4" stroke="#a7aad4"></path><path d="M364 451L456 540L502 439Z" fill="#adacd0" stroke="#adacd0"></path><path d="M555 480L590 540L689 469Z" fill="#aeadcf" stroke="#aeadcf"></path><path d="M732 262L759 66L639 108Z" fill="#aeadcf" stroke="#aeadcf"></path><path d="M456 540L590 540L555 480Z" fill="#acacd1" stroke="#acacd1"></path><path d="M828 417L822 251L701 335Z" fill="#acacd1" stroke="#acacd1"></path><path d="M732 262L824 135L759 66Z" fill="#a9abd2" stroke="#a9abd2"></path><path d="M822 251L824 135L732 262Z" fill="#a9abd2" stroke="#a9abd2"></path><path d="M194 117L202 176L354 89Z" fill="#a2a8d6" stroke="#a2a8d6"></path><path d="M590 540L679 540L689 469Z" fill="#ababd1" stroke="#ababd1"></path><path d="M689 469L828 417L701 335Z" fill="#a2a8d6" stroke="#a2a8d6"></path><path d="M759 66L744 0L632 0Z" fill="#aeadcf" stroke="#aeadcf"></path><path d="M799 0L744 0L759 66Z" fill="#a7aad4" stroke="#a7aad4"></path><path d="M853 540L828 417L689 469Z" fill="#a9abd2" stroke="#a9abd2"></path><path d="M822 251L960 197L824 135Z" fill="#acacd1" stroke="#acacd1"></path><path d="M268 0L194 117L354 89Z" fill="#acacd1" stroke="#acacd1"></path><path d="M364 451L321 540L456 540Z" fill="#aeadcf" stroke="#aeadcf"></path><path d="M276 540L321 540L364 451Z" fill="#a1a8d7" stroke="#a1a8d7"></path><path d="M365 0L268 0L354 89Z" fill="#a1a8d7" stroke="#a1a8d7"></path><path d="M824 135L799 0L759 66Z" fill="#aeadcf" stroke="#aeadcf"></path><path d="M828 417L885 332L822 251Z" fill="#a7aad4" stroke="#a7aad4"></path><path d="M824 135L960 0L799 0Z" fill="#a8aad3" stroke="#a8aad3"></path><path d="M207 468L364 451L345 357Z" fill="#a2a8d6" stroke="#a2a8d6"></path><path d="M207 468L345 357L236 283Z" fill="#a5a9d5" stroke="#a5a9d5"></path><path d="M194 117L152 154L202 176Z" fill="#a2a8d6" stroke="#a2a8d6"></path><path d="M202 176L137 254L236 283Z" fill="#a5a9d5" stroke="#a5a9d5"></path><path d="M102 0L152 154L194 117Z" fill="#ababd1" stroke="#ababd1"></path><path d="M131 357L207 468L236 283Z" fill="#adacd0" stroke="#adacd0"></path><path d="M152 154L137 254L202 176Z" fill="#acacd1" stroke="#acacd1"></path><path d="M137 254L131 357L236 283Z" fill="#aeadcf" stroke="#aeadcf"></path><path d="M131 357L155 469L207 468Z" fill="#a8aad3" stroke="#a8aad3"></path><path d="M207 468L128 540L276 540Z" fill="#a1a8d7" stroke="#a1a8d7"></path><path d="M885 332L960 197L822 251Z" fill="#a7aad4" stroke="#a7aad4"></path><path d="M960 449L960 332L885 332Z" fill="#adacd0" stroke="#adacd0"></path><path d="M885 332L960 332L960 197Z" fill="#ababd1" stroke="#ababd1"></path><path d="M679 540L853 540L689 469Z" fill="#a8aad3" stroke="#a8aad3"></path><path d="M960 449L885 332L828 417Z" fill="#ababd1" stroke="#ababd1"></path><path d="M960 197L960 143L824 135Z" fill="#a1a8d7" stroke="#a1a8d7"></path><path d="M853 540L960 449L828 417Z" fill="#a4a9d5" stroke="#a4a9d5"></path><path d="M268 0L102 0L194 117Z" fill="#a7aad4" stroke="#a7aad4"></path><path d="M0 156L0 263L137 254Z" fill="#aeadcf" stroke="#aeadcf"></path><path d="M137 254L0 287L131 357Z" fill="#acacd1" stroke="#acacd1"></path><path d="M0 415L155 469L131 357Z" fill="#a1a8d7" stroke="#a1a8d7"></path><path d="M0 415L128 540L155 469Z" fill="#a7aad4" stroke="#a7aad4"></path><path d="M155 469L128 540L207 468Z" fill="#acacd1" stroke="#acacd1"></path><path d="M960 143L960 0L824 135Z" fill="#aeadcf" stroke="#aeadcf"></path><path d="M0 156L137 254L152 154Z" fill="#a9abd2" stroke="#a9abd2"></path><path d="M0 263L0 287L137 254Z" fill="#adacd0" stroke="#adacd0"></path><path d="M853 540L960 540L960 449Z" fill="#a5a9d5" stroke="#a5a9d5"></path><path d="M102 0L0 156L152 154Z" fill="#a4a9d5" stroke="#a4a9d5"></path><path d="M0 287L0 415L131 357Z" fill="#a8aad3" stroke="#a8aad3"></path><path d="M102 0L0 0L0 156Z" fill="#a4a9d5" stroke="#a4a9d5"></path><path d="M0 415L0 540L128 540Z" fill="#acacd1" stroke="#acacd1"></path></g></svg>