<svg id="visual" viewBox="0 0 960 540" width="960" height="540" xmlns="http://www.w3.org/2000/svg" xmlns:xlink="http://www.w3.org/1999/xlink" version="1.1"><g stroke-width="1" stroke-linejoin="bevel"><path d="M495 313L577 311L570 251Z" fill="#afb1c3" stroke="#afb1c3"></path><path d="M570 251L476 215L495 313Z" fill="#c9cbdd" stroke="#c9cbdd"></path><path d="M406 342L509 394L495 313Z" fill="#d6d9ea" stroke="#d6d9ea"></path><path d="M495 313L509 394L577 311Z" fill="#d0d2e4" stroke="#d0d2e4"></path><path d="M509 394L601 406L577 311Z" fill="#d0d2e4" stroke="#d0d2e4"></path><path d="M577 311L713 246L570 251Z" fill="#e4e7f8" stroke="#e4e7f8"></path><path d="M476 215L406 342L495 313Z" fill="#a9aabc" stroke="#a9aabc"></path><path d="M476 215L365 230L406 342Z" fill="#c9cbdd" stroke="#c9cbdd"></path><path d="M734 344L713 246L577 311Z" fill="#d6d9ea" stroke="#d6d9ea"></path><path d="M570 251L553 101L476 215Z" fill="#dde0f1" stroke="#dde0f1"></path><path d="M713 246L553 101L570 251Z" fill="#b6b7c9" stroke="#b6b7c9"></path><path d="M476 215L388 97L365 230Z" fill="#a9aabc" stroke="#a9aabc"></path><path d="M601 406L734 344L577 311Z" fill="#b6b7c9" stroke="#b6b7c9"></path><path d="M553 101L482 72L476 215Z" fill="#afb1c3" stroke="#afb1c3"></path><path d="M256 321L327 385L406 342Z" fill="#ebeeff" stroke="#ebeeff"></path><path d="M394 540L466 540L509 394Z" fill="#afb1c3" stroke="#afb1c3"></path><path d="M509 394L466 540L601 406Z" fill="#b6b7c9" stroke="#b6b7c9"></path><path d="M601 406L730 411L734 344Z" fill="#dde0f1" stroke="#dde0f1"></path><path d="M482 72L388 97L476 215Z" fill="#ebeeff" stroke="#ebeeff"></path><path d="M365 230L256 321L406 342Z" fill="#d6d9ea" stroke="#d6d9ea"></path><path d="M394 540L509 394L406 342Z" fill="#bcbed0" stroke="#bcbed0"></path><path d="M601 406L680 540L730 411Z" fill="#e4e7f8" stroke="#e4e7f8"></path><path d="M466 540L644 540L601 406Z" fill="#afb1c3" stroke="#afb1c3"></path><path d="M713 246L699 60L553 101Z" fill="#d0d2e4" stroke="#d0d2e4"></path><path d="M553 101L473 0L482 72Z" fill="#c3c4d6" stroke="#c3c4d6"></path><path d="M817 115L699 60L713 246Z" fill="#a9aabc" stroke="#a9aabc"></path><path d="M247 252L256 321L365 230Z" fill="#c3c4d6" stroke="#c3c4d6"></path><path d="M327 385L394 540L406 342Z" fill="#dde0f1" stroke="#dde0f1"></path><path d="M255 97L247 252L365 230Z" fill="#dde0f1" stroke="#dde0f1"></path><path d="M288 540L394 540L327 385Z" fill="#dde0f1" stroke="#dde0f1"></path><path d="M482 72L405 0L388 97Z" fill="#d6d9ea" stroke="#d6d9ea"></path><path d="M388 97L255 97L365 230Z" fill="#dde0f1" stroke="#dde0f1"></path><path d="M622 0L473 0L553 101Z" fill="#ebeeff" stroke="#ebeeff"></path><path d="M644 540L680 540L601 406Z" fill="#d6d9ea" stroke="#d6d9ea"></path><path d="M699 60L622 0L553 101Z" fill="#d6d9ea" stroke="#d6d9ea"></path><path d="M730 411L836 360L734 344Z" fill="#c3c4d6" stroke="#c3c4d6"></path><path d="M734 344L836 360L713 246Z" fill="#ebeeff" stroke="#ebeeff"></path><path d="M865 392L836 360L730 411Z" fill="#c9cbdd" stroke="#c9cbdd"></path><path d="M836 360L828 183L713 246Z" fill="#d6d9ea" stroke="#d6d9ea"></path><path d="M473 0L405 0L482 72Z" fill="#b6b7c9" stroke="#b6b7c9"></path><path d="M828 183L817 115L713 246Z" fill="#d6d9ea" stroke="#d6d9ea"></path><path d="M699 60L767 0L622 0Z" fill="#ebeeff" stroke="#ebeeff"></path><path d="M288 0L255 97L388 97Z" fill="#dde0f1" stroke="#dde0f1"></path><path d="M159 348L208 389L256 321Z" fill="#c9cbdd" stroke="#c9cbdd"></path><path d="M256 321L208 389L327 385Z" fill="#c9cbdd" stroke="#c9cbdd"></path><path d="M159 348L256 321L247 252Z" fill="#bcbed0" stroke="#bcbed0"></path><path d="M834 540L865 392L730 411Z" fill="#c9cbdd" stroke="#c9cbdd"></path><path d="M836 360L960 317L828 183Z" fill="#e4e7f8" stroke="#e4e7f8"></path><path d="M960 68L816 0L817 115Z" fill="#d6d9ea" stroke="#d6d9ea"></path><path d="M208 389L288 540L327 385Z" fill="#dde0f1" stroke="#dde0f1"></path><path d="M817 115L767 0L699 60Z" fill="#ebeeff" stroke="#ebeeff"></path><path d="M405 0L288 0L388 97Z" fill="#dde0f1" stroke="#dde0f1"></path><path d="M128 198L159 348L247 252Z" fill="#a9aabc" stroke="#a9aabc"></path><path d="M208 389L120 540L288 540Z" fill="#c3c4d6" stroke="#c3c4d6"></path><path d="M128 198L247 252L255 97Z" fill="#b6b7c9" stroke="#b6b7c9"></path><path d="M680 540L834 540L730 411Z" fill="#a9aabc" stroke="#a9aabc"></path><path d="M817 115L816 0L767 0Z" fill="#c9cbdd" stroke="#c9cbdd"></path><path d="M960 175L817 115L828 183Z" fill="#afb1c3" stroke="#afb1c3"></path><path d="M80 124L128 198L255 97Z" fill="#e4e7f8" stroke="#e4e7f8"></path><path d="M960 407L960 317L865 392Z" fill="#c9cbdd" stroke="#c9cbdd"></path><path d="M865 392L960 317L836 360Z" fill="#c9cbdd" stroke="#c9cbdd"></path><path d="M960 317L960 175L828 183Z" fill="#afb1c3" stroke="#afb1c3"></path><path d="M960 540L960 407L865 392Z" fill="#c3c4d6" stroke="#c3c4d6"></path><path d="M960 175L960 68L817 115Z" fill="#c9cbdd" stroke="#c9cbdd"></path><path d="M97 0L80 124L255 97Z" fill="#afb1c3" stroke="#afb1c3"></path><path d="M0 391L89 474L159 348Z" fill="#b6b7c9" stroke="#b6b7c9"></path><path d="M0 303L159 348L128 198Z" fill="#d0d2e4" stroke="#d0d2e4"></path><path d="M159 348L89 474L208 389Z" fill="#c9cbdd" stroke="#c9cbdd"></path><path d="M89 474L120 540L208 389Z" fill="#c9cbdd" stroke="#c9cbdd"></path><path d="M834 540L960 540L865 392Z" fill="#ebeeff" stroke="#ebeeff"></path><path d="M960 68L960 0L816 0Z" fill="#bcbed0" stroke="#bcbed0"></path><path d="M288 0L97 0L255 97Z" fill="#afb1c3" stroke="#afb1c3"></path><path d="M0 197L0 303L128 198Z" fill="#a9aabc" stroke="#a9aabc"></path><path d="M89 474L0 540L120 540Z" fill="#e4e7f8" stroke="#e4e7f8"></path><path d="M0 197L128 198L80 124Z" fill="#d0d2e4" stroke="#d0d2e4"></path><path d="M0 156L0 197L80 124Z" fill="#dde0f1" stroke="#dde0f1"></path><path d="M0 303L0 391L159 348Z" fill="#d0d2e4" stroke="#d0d2e4"></path><path d="M0 0L0 156L80 124Z" fill="#d6d9ea" stroke="#d6d9ea"></path><path d="M0 391L0 540L89 474Z" fill="#c3c4d6" stroke="#c3c4d6"></path><path d="M97 0L0 0L80 124Z" fill="#bcbed0" stroke="#bcbed0"></path></g></svg>