<svg id="visual" viewBox="0 0 900 600" width="900" height="600" xmlns="http://www.w3.org/2000/svg" xmlns:xlink="http://www.w3.org/1999/xlink" version="1.1"><g stroke-width="1" stroke-linejoin="bevel"><path d="M436 294L422 233L331.5 317Z" fill="#78624b" stroke="#78624b"></path><path d="M422 233L308.5 227L331.5 317Z" fill="#78624b" stroke="#78624b"></path><path d="M222 307L312.5 374L331.5 317Z" fill="#715b46" stroke="#715b46"></path><path d="M331.5 317L483 373L436 294Z" fill="#806951" stroke="#806951"></path><path d="M312.5 374L483 373L331.5 317Z" fill="#4b392a" stroke="#4b392a"></path><path d="M436 294L539.5 292L422 233Z" fill="#4b392a" stroke="#4b392a"></path><path d="M308.5 227L222 307L331.5 317Z" fill="#695440" stroke="#695440"></path><path d="M483 373L539.5 292L436 294Z" fill="#534030" stroke="#534030"></path><path d="M310.5 81L232 196L308.5 227Z" fill="#4b392a" stroke="#4b392a"></path><path d="M308.5 227L232 196L222 307Z" fill="#877157" stroke="#877157"></path><path d="M523.5 113L455 116L422 233Z" fill="#614d3a" stroke="#614d3a"></path><path d="M422 233L455 116L308.5 227Z" fill="#443325" stroke="#443325"></path><path d="M127.5 335L195 370L222 307Z" fill="#534030" stroke="#534030"></path><path d="M222 307L195 370L312.5 374Z" fill="#8f785d" stroke="#8f785d"></path><path d="M455 116L310.5 81L308.5 227Z" fill="#715b46" stroke="#715b46"></path><path d="M539.5 292L523.5 113L422 233Z" fill="#5a4635" stroke="#5a4635"></path><path d="M455 116L348.5 0L310.5 81Z" fill="#4b392a" stroke="#4b392a"></path><path d="M347.5 530L440 499L312.5 374Z" fill="#806951" stroke="#806951"></path><path d="M312.5 374L440 499L483 373Z" fill="#78624b" stroke="#78624b"></path><path d="M483 373L597.5 396L539.5 292Z" fill="#5a4635" stroke="#5a4635"></path><path d="M224 83L146.5 208L232 196Z" fill="#5a4635" stroke="#5a4635"></path><path d="M232 196L146.5 208L222 307Z" fill="#806951" stroke="#806951"></path><path d="M539.5 292L598.5 169L523.5 113Z" fill="#534030" stroke="#534030"></path><path d="M310.5 81L224 83L232 196Z" fill="#443325" stroke="#443325"></path><path d="M530.5 503L597.5 396L483 373Z" fill="#443325" stroke="#443325"></path><path d="M539.5 292L653 328L598.5 169Z" fill="#614d3a" stroke="#614d3a"></path><path d="M262 536L347.5 530L312.5 374Z" fill="#715b46" stroke="#715b46"></path><path d="M146.5 208L127.5 335L222 307Z" fill="#4b392a" stroke="#4b392a"></path><path d="M195 370L262 536L312.5 374Z" fill="#5a4635" stroke="#5a4635"></path><path d="M453 600L530.5 503L440 499Z" fill="#534030" stroke="#534030"></path><path d="M440 499L530.5 503L483 373Z" fill="#443325" stroke="#443325"></path><path d="M488 0L348.5 0L455 116Z" fill="#5a4635" stroke="#5a4635"></path><path d="M310.5 81L260 0L224 83Z" fill="#715b46" stroke="#715b46"></path><path d="M654 374L653 328L597.5 396Z" fill="#614d3a" stroke="#614d3a"></path><path d="M597.5 396L653 328L539.5 292Z" fill="#806951" stroke="#806951"></path><path d="M138.5 538L262 536L195 370Z" fill="#806951" stroke="#806951"></path><path d="M0 384L107.5 385L127.5 335Z" fill="#5a4635" stroke="#5a4635"></path><path d="M127.5 335L107.5 385L195 370Z" fill="#695440" stroke="#695440"></path><path d="M661 486L654 374L597.5 396Z" fill="#877157" stroke="#877157"></path><path d="M554.5 0L488 0L523.5 113Z" fill="#4b392a" stroke="#4b392a"></path><path d="M523.5 113L488 0L455 116Z" fill="#806951" stroke="#806951"></path><path d="M348.5 0L260 0L310.5 81Z" fill="#614d3a" stroke="#614d3a"></path><path d="M224 83L91.5 84L146.5 208Z" fill="#614d3a" stroke="#614d3a"></path><path d="M660 102L554.5 0L523.5 113Z" fill="#78624b" stroke="#78624b"></path><path d="M660 102L523.5 113L598.5 169Z" fill="#806951" stroke="#806951"></path><path d="M262 536L329.5 600L347.5 530Z" fill="#806951" stroke="#806951"></path><path d="M347.5 530L453 600L440 499Z" fill="#8f785d" stroke="#8f785d"></path><path d="M709 239L598.5 169L653 328Z" fill="#4b392a" stroke="#4b392a"></path><path d="M709 239L660 102L598.5 169Z" fill="#877157" stroke="#877157"></path><path d="M329.5 600L453 600L347.5 530Z" fill="#4b392a" stroke="#4b392a"></path><path d="M530.5 503L661 486L597.5 396Z" fill="#614d3a" stroke="#614d3a"></path><path d="M774.5 285L709 239L653 328Z" fill="#443325" stroke="#443325"></path><path d="M150.5 0L91.5 84L224 83Z" fill="#534030" stroke="#534030"></path><path d="M146.5 208L0 285L127.5 335Z" fill="#5a4635" stroke="#5a4635"></path><path d="M262 536L240 600L329.5 600Z" fill="#534030" stroke="#534030"></path><path d="M138.5 538L240 600L262 536Z" fill="#4b392a" stroke="#4b392a"></path><path d="M548.5 600L661 486L530.5 503Z" fill="#695440" stroke="#695440"></path><path d="M773.5 371L774.5 285L653 328Z" fill="#8f785d" stroke="#8f785d"></path><path d="M107.5 385L138.5 538L195 370Z" fill="#5a4635" stroke="#5a4635"></path><path d="M260 0L150.5 0L224 83Z" fill="#534030" stroke="#534030"></path><path d="M453 600L548.5 600L530.5 503Z" fill="#5a4635" stroke="#5a4635"></path><path d="M0 171L0 285L146.5 208Z" fill="#877157" stroke="#877157"></path><path d="M107.5 385L0 534L138.5 538Z" fill="#78624b" stroke="#78624b"></path><path d="M660 102L649 0L554.5 0Z" fill="#534030" stroke="#534030"></path><path d="M793.5 0L649 0L660 102Z" fill="#8f785d" stroke="#8f785d"></path><path d="M0 121L0 171L91.5 84Z" fill="#8f785d" stroke="#8f785d"></path><path d="M91.5 84L0 171L146.5 208Z" fill="#877157" stroke="#877157"></path><path d="M0 285L0 384L127.5 335Z" fill="#5a4635" stroke="#5a4635"></path><path d="M0 600L148.5 600L138.5 538Z" fill="#695440" stroke="#695440"></path><path d="M138.5 538L148.5 600L240 600Z" fill="#695440" stroke="#695440"></path><path d="M773.5 371L653 328L654 374Z" fill="#695440" stroke="#695440"></path><path d="M709 239L816.5 123L660 102Z" fill="#534030" stroke="#534030"></path><path d="M0 0L0 121L91.5 84Z" fill="#4b392a" stroke="#4b392a"></path><path d="M661 486L773.5 371L654 374Z" fill="#4b392a" stroke="#4b392a"></path><path d="M900 270L821.5 192L774.5 285Z" fill="#443325" stroke="#443325"></path><path d="M774.5 285L821.5 192L709 239Z" fill="#8f785d" stroke="#8f785d"></path><path d="M548.5 600L698 600L661 486Z" fill="#5a4635" stroke="#5a4635"></path><path d="M661 486L816.5 515L773.5 371Z" fill="#806951" stroke="#806951"></path><path d="M0 384L0 534L107.5 385Z" fill="#614d3a" stroke="#614d3a"></path><path d="M821.5 192L816.5 123L709 239Z" fill="#534030" stroke="#534030"></path><path d="M150.5 0L0 0L91.5 84Z" fill="#78624b" stroke="#78624b"></path><path d="M0 534L0 600L138.5 538Z" fill="#534030" stroke="#534030"></path><path d="M816.5 123L793.5 0L660 102Z" fill="#4b392a" stroke="#4b392a"></path><path d="M698 600L816.5 515L661 486Z" fill="#8f785d" stroke="#8f785d"></path><path d="M900 377L900 270L774.5 285Z" fill="#534030" stroke="#534030"></path><path d="M698 600L781.5 600L816.5 515Z" fill="#715b46" stroke="#715b46"></path><path d="M821.5 192L900 177L816.5 123Z" fill="#443325" stroke="#443325"></path><path d="M816.5 123L900 104L793.5 0Z" fill="#534030" stroke="#534030"></path><path d="M900 377L774.5 285L773.5 371Z" fill="#877157" stroke="#877157"></path><path d="M900 270L900 177L821.5 192Z" fill="#877157" stroke="#877157"></path><path d="M900 507L900 377L816.5 515Z" fill="#695440" stroke="#695440"></path><path d="M816.5 515L900 377L773.5 371Z" fill="#877157" stroke="#877157"></path><path d="M900 177L900 104L816.5 123Z" fill="#443325" stroke="#443325"></path><path d="M900 600L900 507L816.5 515Z" fill="#806951" stroke="#806951"></path><path d="M900 104L900 0L793.5 0Z" fill="#614d3a" stroke="#614d3a"></path><path d="M781.5 600L900 600L816.5 515Z" fill="#5a4635" stroke="#5a4635"></path></g></svg>