<svg id="visual" viewBox="0 0 900 600" width="900" height="600" xmlns="http://www.w3.org/2000/svg" xmlns:xlink="http://www.w3.org/1999/xlink" version="1.1"><g stroke-width="1" stroke-linejoin="bevel"><path d="M450 230.1L429 183.4L379 238.1Z" fill="#756152" stroke="#756152"></path><path d="M429 183.4L352 150.4L379 238.1Z" fill="#87715a" stroke="#87715a"></path><path d="M474 371.9L507 253.1L450 230.1Z" fill="#8a735b" stroke="#8a735b"></path><path d="M450 230.1L571 183.4L429 183.4Z" fill="#8c765c" stroke="#8c765c"></path><path d="M571 183.4L439 79.7L429 183.4Z" fill="#8a735b" stroke="#8a735b"></path><path d="M429 183.4L439 79.7L352 150.4Z" fill="#856e59" stroke="#856e59"></path><path d="M205 110.7L263 204.4L352 150.4Z" fill="#87715a" stroke="#87715a"></path><path d="M352 150.4L263 204.4L379 238.1Z" fill="#8a735b" stroke="#8a735b"></path><path d="M263 204.4L261 256.1L379 238.1Z" fill="#7f6a57" stroke="#7f6a57"></path><path d="M379 238.1L474 371.9L450 230.1Z" fill="#8f785d" stroke="#8f785d"></path><path d="M261 256.1L343 358.9L379 238.1Z" fill="#87715a" stroke="#87715a"></path><path d="M507 253.1L571 183.4L450 230.1Z" fill="#7f6a57" stroke="#7f6a57"></path><path d="M439 79.7L355 65.7L352 150.4Z" fill="#8c765c" stroke="#8c765c"></path><path d="M343 358.9L474 371.9L379 238.1Z" fill="#7f6a57" stroke="#7f6a57"></path><path d="M507 253.1L602 283.1L571 183.4Z" fill="#856e59" stroke="#856e59"></path><path d="M474 371.9L512 357.9L507 253.1Z" fill="#87715a" stroke="#87715a"></path><path d="M253 358.9L348 399.6L343 358.9Z" fill="#7f6a57" stroke="#7f6a57"></path><path d="M343 358.9L348 399.6L474 371.9Z" fill="#8a735b" stroke="#8a735b"></path><path d="M600 308.9L602 283.1L507 253.1Z" fill="#87715a" stroke="#87715a"></path><path d="M512 357.9L600 308.9L507 253.1Z" fill="#8c765c" stroke="#8c765c"></path><path d="M603 92.7L569 81.7L571 183.4Z" fill="#826c58" stroke="#826c58"></path><path d="M571 183.4L569 81.7L439 79.7Z" fill="#786353" stroke="#786353"></path><path d="M439 79.7L464 0L355 65.7Z" fill="#7d6856" stroke="#7d6856"></path><path d="M261 256.1L253 358.9L343 358.9Z" fill="#87715a" stroke="#87715a"></path><path d="M207 322.9L253 358.9L261 256.1Z" fill="#786353" stroke="#786353"></path><path d="M529 0L464 0L439 79.7Z" fill="#8c765c" stroke="#8c765c"></path><path d="M728 264.1L638 185.4L602 283.1Z" fill="#7d6856" stroke="#7d6856"></path><path d="M602 283.1L638 185.4L571 183.4Z" fill="#8a735b" stroke="#8a735b"></path><path d="M162 177.4L185 231.1L263 204.4Z" fill="#786353" stroke="#786353"></path><path d="M263 204.4L185 231.1L261 256.1Z" fill="#8a735b" stroke="#8a735b"></path><path d="M638 185.4L603 92.7L571 183.4Z" fill="#8f785d" stroke="#8f785d"></path><path d="M569 81.7L529 0L439 79.7Z" fill="#7f6a57" stroke="#7f6a57"></path><path d="M185 231.1L207 322.9L261 256.1Z" fill="#756152" stroke="#756152"></path><path d="M464 0L340 0L355 65.7Z" fill="#8c765c" stroke="#8c765c"></path><path d="M237 57.7L205 110.7L352 150.4Z" fill="#7f6a57" stroke="#7f6a57"></path><path d="M237 57.7L352 150.4L355 65.7Z" fill="#8f785d" stroke="#8f785d"></path><path d="M285 0L237 57.7L355 65.7Z" fill="#8c765c" stroke="#8c765c"></path><path d="M474 371.9L537 443.6L512 357.9Z" fill="#786353" stroke="#786353"></path><path d="M512 357.9L611 396.6L600 308.9Z" fill="#856e59" stroke="#856e59"></path><path d="M348 399.6L479 449.6L474 371.9Z" fill="#856e59" stroke="#856e59"></path><path d="M640 0L529 0L569 81.7Z" fill="#786353" stroke="#786353"></path><path d="M340 0L285 0L355 65.7Z" fill="#8a735b" stroke="#8a735b"></path><path d="M108 163.4L162 177.4L107 112.7Z" fill="#7d6856" stroke="#7d6856"></path><path d="M205 110.7L162 177.4L263 204.4Z" fill="#8f785d" stroke="#8f785d"></path><path d="M61 340.9L204 407.6L207 322.9Z" fill="#826c58" stroke="#826c58"></path><path d="M479 449.6L537 443.6L474 371.9Z" fill="#786353" stroke="#786353"></path><path d="M537 443.6L611 396.6L512 357.9Z" fill="#8c765c" stroke="#8c765c"></path><path d="M600 308.9L728 264.1L602 283.1Z" fill="#7d6856" stroke="#7d6856"></path><path d="M253 358.9L238 436.6L348 399.6Z" fill="#7f6a57" stroke="#7f6a57"></path><path d="M348 399.6L452 526.3L479 449.6Z" fill="#8f785d" stroke="#8f785d"></path><path d="M204 407.6L238 436.6L253 358.9Z" fill="#8f785d" stroke="#8f785d"></path><path d="M204 407.6L253 358.9L207 322.9Z" fill="#826c58" stroke="#826c58"></path><path d="M61 259.1L207 322.9L185 231.1Z" fill="#826c58" stroke="#826c58"></path><path d="M479 449.6L544 485.3L537 443.6Z" fill="#8f785d" stroke="#8f785d"></path><path d="M537 443.6L544 485.3L611 396.6Z" fill="#7f6a57" stroke="#7f6a57"></path><path d="M452 526.3L544 485.3L479 449.6Z" fill="#7f6a57" stroke="#7f6a57"></path><path d="M107 112.7L162 177.4L205 110.7Z" fill="#7a6554" stroke="#7a6554"></path><path d="M162 177.4L108 163.4L185 231.1Z" fill="#756152" stroke="#756152"></path><path d="M183 0L205 110.7L237 57.7Z" fill="#786353" stroke="#786353"></path><path d="M329 521.3L452 526.3L348 399.6Z" fill="#826c58" stroke="#826c58"></path><path d="M264 531.3L329 521.3L238 436.6Z" fill="#87715a" stroke="#87715a"></path><path d="M238 436.6L329 521.3L348 399.6Z" fill="#826c58" stroke="#826c58"></path><path d="M603 92.7L640 0L569 81.7Z" fill="#786353" stroke="#786353"></path><path d="M730 53.7L640 0L603 92.7Z" fill="#826c58" stroke="#826c58"></path><path d="M285 0L183 0L237 57.7Z" fill="#786353" stroke="#786353"></path><path d="M720 372.9L600 308.9L611 396.6Z" fill="#856e59" stroke="#856e59"></path><path d="M720 372.9L728 264.1L600 308.9Z" fill="#8c765c" stroke="#8c765c"></path><path d="M638 185.4L741 149.4L603 92.7Z" fill="#7d6856" stroke="#7d6856"></path><path d="M183 0L107 112.7L205 110.7Z" fill="#826c58" stroke="#826c58"></path><path d="M728 264.1L741 149.4L638 185.4Z" fill="#7d6856" stroke="#7d6856"></path><path d="M746 442.6L720 372.9L719 485.3Z" fill="#826c58" stroke="#826c58"></path><path d="M728 264.1L789 169.4L741 149.4Z" fill="#87715a" stroke="#87715a"></path><path d="M202 529.3L264 531.3L238 436.6Z" fill="#8f785d" stroke="#8f785d"></path><path d="M329 521.3L386 600L452 526.3Z" fill="#7f6a57" stroke="#7f6a57"></path><path d="M0 250.1L61 259.1L0 182.4Z" fill="#826c58" stroke="#826c58"></path><path d="M108 163.4L61 259.1L185 231.1Z" fill="#7d6856" stroke="#7d6856"></path><path d="M204 407.6L202 529.3L238 436.6Z" fill="#7d6856" stroke="#7d6856"></path><path d="M741 149.4L730 53.7L603 92.7Z" fill="#7f6a57" stroke="#7f6a57"></path><path d="M730 53.7L701 0L640 0Z" fill="#856e59" stroke="#856e59"></path><path d="M61 259.1L61 340.9L207 322.9Z" fill="#7f6a57" stroke="#7f6a57"></path><path d="M113 492.3L202 529.3L204 407.6Z" fill="#8a735b" stroke="#8a735b"></path><path d="M741 149.4L800 61.7L730 53.7Z" fill="#7a6554" stroke="#7a6554"></path><path d="M815 287.1L789 169.4L728 264.1Z" fill="#8c765c" stroke="#8c765c"></path><path d="M270 600L386 600L329 521.3Z" fill="#786353" stroke="#786353"></path><path d="M452 526.3L524 600L544 485.3Z" fill="#8c765c" stroke="#8c765c"></path><path d="M544 485.3L622 545.3L611 396.6Z" fill="#7f6a57" stroke="#7f6a57"></path><path d="M270 600L329 521.3L264 531.3Z" fill="#7d6856" stroke="#7d6856"></path><path d="M386 600L448 600L452 526.3Z" fill="#826c58" stroke="#826c58"></path><path d="M61 340.9L101 448.6L204 407.6Z" fill="#856e59" stroke="#856e59"></path><path d="M524 600L622 545.3L544 485.3Z" fill="#856e59" stroke="#856e59"></path><path d="M448 600L524 600L452 526.3Z" fill="#8f785d" stroke="#8f785d"></path><path d="M719 485.3L720 372.9L611 396.6Z" fill="#826c58" stroke="#826c58"></path><path d="M819 317.9L815 287.1L728 264.1Z" fill="#856e59" stroke="#856e59"></path><path d="M0 494.3L113 492.3L101 448.6Z" fill="#8c765c" stroke="#8c765c"></path><path d="M101 448.6L113 492.3L204 407.6Z" fill="#756152" stroke="#756152"></path><path d="M622 545.3L719 485.3L611 396.6Z" fill="#786353" stroke="#786353"></path><path d="M174 600L270 600L202 529.3Z" fill="#7f6a57" stroke="#7f6a57"></path><path d="M202 529.3L270 600L264 531.3Z" fill="#7f6a57" stroke="#7f6a57"></path><path d="M819 317.9L728 264.1L720 372.9Z" fill="#7a6554" stroke="#7a6554"></path><path d="M183 0L65 0L107 112.7Z" fill="#7a6554" stroke="#7a6554"></path><path d="M0 182.4L61 259.1L108 163.4Z" fill="#786353" stroke="#786353"></path><path d="M61 259.1L0 336.9L61 340.9Z" fill="#7d6856" stroke="#7d6856"></path><path d="M61 340.9L0 398.6L101 448.6Z" fill="#87715a" stroke="#87715a"></path><path d="M0 182.4L108 163.4L107 112.7Z" fill="#7f6a57" stroke="#7f6a57"></path><path d="M0 75.7L0 182.4L107 112.7Z" fill="#8f785d" stroke="#8f785d"></path><path d="M831 0L800 61.7L900 85.7Z" fill="#786353" stroke="#786353"></path><path d="M789 169.4L800 61.7L741 149.4Z" fill="#7f6a57" stroke="#7f6a57"></path><path d="M730 53.7L831 0L701 0Z" fill="#7d6856" stroke="#7d6856"></path><path d="M789 445.6L819 317.9L720 372.9Z" fill="#8f785d" stroke="#8f785d"></path><path d="M900 85.7L800 61.7L789 169.4Z" fill="#7f6a57" stroke="#7f6a57"></path><path d="M0 250.1L0 336.9L61 259.1Z" fill="#7a6554" stroke="#7a6554"></path><path d="M65 0L0 75.7L107 112.7Z" fill="#8f785d" stroke="#8f785d"></path><path d="M524 600L630 600L622 545.3Z" fill="#7d6856" stroke="#7d6856"></path><path d="M622 545.3L722 600L719 485.3Z" fill="#856e59" stroke="#856e59"></path><path d="M746 442.6L789 445.6L720 372.9Z" fill="#8a735b" stroke="#8a735b"></path><path d="M719 485.3L789 445.6L746 442.6Z" fill="#8a735b" stroke="#8a735b"></path><path d="M824 511.3L789 445.6L719 485.3Z" fill="#8a735b" stroke="#8a735b"></path><path d="M119 600L202 529.3L113 492.3Z" fill="#8a735b" stroke="#8a735b"></path><path d="M119 600L174 600L202 529.3Z" fill="#7a6554" stroke="#7a6554"></path><path d="M0 336.9L0 398.6L61 340.9Z" fill="#8f785d" stroke="#8f785d"></path><path d="M65 0L0 0L0 75.7Z" fill="#87715a" stroke="#87715a"></path><path d="M900 247.1L789 169.4L815 287.1Z" fill="#7a6554" stroke="#7a6554"></path><path d="M800 61.7L831 0L730 53.7Z" fill="#786353" stroke="#786353"></path><path d="M0 600L119 600L113 492.3Z" fill="#7d6856" stroke="#7d6856"></path><path d="M900 318.9L815 287.1L819 317.9Z" fill="#856e59" stroke="#856e59"></path><path d="M900 318.9L900 247.1L815 287.1Z" fill="#8c765c" stroke="#8c765c"></path><path d="M900 247.1L900 167.4L789 169.4Z" fill="#7a6554" stroke="#7a6554"></path><path d="M630 600L722 600L622 545.3Z" fill="#826c58" stroke="#826c58"></path><path d="M900 458.6L900 318.9L819 317.9Z" fill="#7d6856" stroke="#7d6856"></path><path d="M0 398.6L0 494.3L101 448.6Z" fill="#8a735b" stroke="#8a735b"></path><path d="M900 458.6L819 317.9L789 445.6Z" fill="#856e59" stroke="#856e59"></path><path d="M722 600L824 511.3L719 485.3Z" fill="#856e59" stroke="#856e59"></path><path d="M900 167.4L900 85.7L789 169.4Z" fill="#8f785d" stroke="#8f785d"></path><path d="M900 85.7L900 0L831 0Z" fill="#7a6554" stroke="#7a6554"></path><path d="M824 511.3L900 458.6L789 445.6Z" fill="#756152" stroke="#756152"></path><path d="M900 514.3L900 458.6L824 511.3Z" fill="#8c765c" stroke="#8c765c"></path><path d="M722 600L822 600L824 511.3Z" fill="#7f6a57" stroke="#7f6a57"></path><path d="M0 494.3L0 600L113 492.3Z" fill="#87715a" stroke="#87715a"></path><path d="M822 600L900 514.3L824 511.3Z" fill="#7a6554" stroke="#7a6554"></path><path d="M822 600L900 600L900 514.3Z" fill="#8a735b" stroke="#8a735b"></path></g></svg>